<?xml version="1.0" standalone="no"?>
<!DOCTYPE svg PUBLIC "-//W3C//DTD SVG 1.1//EN" "http://www.w3.org/Graphics/SVG/1.1/DTD/svg11.dtd" >
<svg xmlns="http://www.w3.org/2000/svg">
<metadata></metadata>
<defs>
<font id="_.uploaded_file" horiz-adv-x="565" >
<font-face units-per-em="2048" ascent="1638" descent="-410" />
<missing-glyph horiz-adv-x="296" />
<glyph horiz-adv-x="2048" />
<glyph horiz-adv-x="2048" />
<glyph unicode="&#xd;" horiz-adv-x="2048" />
<glyph unicode=" "  horiz-adv-x="296" />
<glyph unicode="&#x09;" horiz-adv-x="296" />
<glyph unicode="&#xa0;" horiz-adv-x="296" />
<glyph unicode="!" horiz-adv-x="352" d="M104 0v141h142v-141h-142zM104 272v1098h142v-1098h-142z" />
<glyph unicode="&#x22;" d="M106 1225v145h144v-145l-70 -142l-6 -2zM315 1225v145h144v-145l-70 -142l-6 -2z" />
<glyph unicode="#" horiz-adv-x="630" d="M27 422v110h118l33 293h-112v109h122l48 414h92l-47 -414h116l45 414h97l-45 -414h106v-109h-119l-32 -293h114v-110h-123l-49 -422h-92l43 422h-113l-45 -422h-96l45 422h-106zM240 532h114l33 293h-117z" />
<glyph unicode="$" d="M72 336v84h141v-141h139v335h-139q-59 0 -100 41t-41 101v276q0 68 37.5 123t103.5 78v147h139v-147q66 -25 103 -78q39 -55 39 -123v-82h-142v142h-139v-336h139q57 0 99.5 -42t42.5 -100v-278q0 -68 -38 -122t-104 -77v-149h-139v149q-68 25 -104 78q-37 51 -37 121z " />
<glyph unicode="%" horiz-adv-x="819" d="M43 852v383q0 61 42 103t103 42q59 0 101.5 -42t42.5 -103v-383q0 -61 -42 -103t-102 -42q-61 0 -103 42t-42 103zM150 825h75v439h-75v-439zM156 0l409 1370h97l-410 -1370h-96zM483 133v383q0 61 42 103.5t104 42.5q59 0 101 -42t42 -104v-383q0 -61 -42 -103t-101 -42 q-61 0 -103.5 42t-42.5 103zM590 106h76v439h-76v-439z" />
<glyph unicode="&#x26;" horiz-adv-x="636" d="M72 141v416q0 102 61 125q-61 39 -61 111v376q0 88 61.5 149.5t147.5 61.5q88 0 150.5 -61.5t62.5 -149.5v-155h-142v215h-139v-475h139v135h142v-135h137v-142h-137v-612h-281q-59 0 -100 41t-41 100zM213 141h139v471h-139v-471z" />
<glyph unicode="'" horiz-adv-x="282" d="M70 1225v145h143v-145l-70 -142l-6 -2z" />
<glyph unicode="(" horiz-adv-x="423" d="M106 -133v1442q0 59 41 100t101 41h141v-141h-141v-1442h141v-141h-141q-59 0 -100.5 41t-41.5 100z" />
<glyph unicode=")" horiz-adv-x="423" d="M35 -133h141v1442h-141v141h141q57 0 99 -41t42 -100v-1442q0 -59 -42 -100t-99 -41h-141v141z" />
<glyph unicode="*" horiz-adv-x="497" d="M29 1159l51 123l113 -55l-5 143h121l-4 -143l115 55l49 -123l-127 -39l84 -98l-100 -76l-78 115l-62 -115l-114 76l88 98z" />
<glyph unicode="+" horiz-adv-x="645" d="M41 494v102h229v289h103v-289h229v-102h-229v-289h-103v289h-229z" />
<glyph unicode="," horiz-adv-x="282" d="M70 -141v286h143v-145l-139 -141h-4z" />
<glyph unicode="-" d="M82 614v142h401v-142h-401z" />
<glyph unicode="." horiz-adv-x="282" d="M70 0v145h143v-145h-143z" />
<glyph unicode="/" d="M92 -12l240 1392h141l-240 -1392h-141z" />
<glyph unicode="0" d="M72 201v968q0 88 61.5 149.5t147.5 61.5q88 0 150.5 -61.5t62.5 -149.5v-968q0 -88 -62.5 -150.5t-150.5 -62.5q-86 0 -147.5 62.5t-61.5 150.5zM213 141h139v1088h-139v-1088z" />
<glyph unicode="1" d="M109 1229v141h256v-1370h-140v1229h-116z" />
<glyph unicode="2" d="M72 0v614q0 59 41 100.5t100 41.5h139v473h-139v-215h-141v155q0 88 61.5 149.5t147.5 61.5q88 0 150.5 -61.5t62.5 -149.5v-413q0 -59 -42 -100.5t-100 -41.5h-139v-473h139v215h142v-356h-422z" />
<glyph unicode="3" d="M72 201v155h141v-215h139v473h-166l160 615h-133v-215h-141v356h422v-141l-127 -473q49 0 88 -42t39 -100v-413q0 -88 -62.5 -150.5t-150.5 -62.5q-86 0 -147.5 62.5t-61.5 150.5z" />
<glyph unicode="4" d="M0 498v141l279 731h143v-731h108v-141h-108v-498h-141v498h-281zM131 639h150l12 307q2 61 10 178h-2q-39 -143 -53 -178z" />
<glyph unicode="5" d="M72 201v155h141v-215h139v473h-280v756h422v-356h-142v215h-139v-473h139q57 0 99.5 -42t42.5 -100v-413q0 -88 -62.5 -150.5t-150.5 -62.5q-86 0 -147.5 62.5t-61.5 150.5z" />
<glyph unicode="6" d="M72 201v968q0 88 61.5 149.5t147.5 61.5q88 0 150.5 -61.5t62.5 -149.5v-155h-142v215h-139v-473h139q57 0 99.5 -42t42.5 -100v-413q0 -88 -62.5 -150.5t-150.5 -62.5q-86 0 -147.5 62.5t-61.5 150.5zM213 141h139v473h-139v-473z" />
<glyph unicode="7" d="M80 0l270 1229h-125v-215h-141v356h422v-86l-281 -1284h-145z" />
<glyph unicode="8" d="M72 201v342q0 109 78 141q-78 37 -78 143v342q0 88 61.5 149.5t147.5 61.5q88 0 150.5 -61.5t62.5 -149.5v-342q0 -104 -78 -143q78 -35 78 -141v-342q0 -88 -62.5 -150.5t-150.5 -62.5q-86 0 -147.5 62.5t-61.5 150.5zM213 141h139v461h-139v-461zM213 768h139v461h-139 v-461z" />
<glyph unicode="9" d="M72 201v155h141v-215h139v473h-139q-59 0 -100 41t-41 101v413q0 88 61.5 149.5t147.5 61.5q88 0 150.5 -61.5t62.5 -149.5v-968q0 -88 -62.5 -150.5t-150.5 -62.5q-86 0 -147.5 62.5t-61.5 150.5zM213 756h139v473h-139v-473z" />
<glyph unicode=":" horiz-adv-x="282" d="M70 0v145h143v-145h-143zM70 782v146h143v-146h-143z" />
<glyph unicode=";" horiz-adv-x="282" d="M70 -141v286h143v-145l-139 -141h-4zM70 782v146h143v-146h-143z" />
<glyph unicode="&#x3c;" horiz-adv-x="645" d="M63 500v98l519 346v-121l-430 -270v-4l430 -275v-118z" />
<glyph unicode="=" horiz-adv-x="645" d="M41 352v103h561v-103h-561zM41 637v102h561v-102h-561z" />
<glyph unicode="&#x3e;" horiz-adv-x="645" d="M63 156v118l429 273v4l-429 272v121l519 -346v-98z" />
<glyph unicode="?" d="M72 1008v161q0 88 61.5 149.5t147.5 61.5q88 0 150.5 -61.5t62.5 -149.5v-413q0 -59 -42 -100.5t-100 -41.5h-71v-344h-140v344q0 57 41 99.5t99 42.5h71v473h-139v-221h-141zM141 0v141h140v-141h-140z" />
<glyph unicode="@" horiz-adv-x="974" d="M59 377q0 334 141.5 564t360.5 230q182 0 274.5 -143t92.5 -360q0 -266 -70 -416t-180 -150q-94 0 -111 152q-66 -152 -172 -152q-61 0 -97 64.5t-36 179.5q0 205 90 360.5t236 155.5q76 0 133 -39l-53 -387q-12 -96 -11 -123q0 -102 41 -102q47 0 91.5 124t44.5 312 q0 207 -72 318.5t-215 111.5q-147 0 -268 -198.5t-121 -503.5q0 -215 87 -353.5t220 -138.5q99 0 201 72l32 -82q-109 -88 -249 -88q-150 0 -270 147.5t-120 444.5zM399 381q0 -127 45 -127q31 0 62 73.5t47 161.5l39 267q-16 8 -33 8q-55 0 -107.5 -117t-52.5 -266z" />
<glyph unicode="A" d="M72 0v1169q0 88 61.5 149.5t147.5 61.5q88 0 150.5 -61.5t62.5 -149.5v-1169h-142v614h-139v-614h-141zM213 756h139v473h-139v-473z" />
<glyph unicode="B" d="M72 0v1370h280q57 0 99.5 -42t42.5 -99v-434q0 -74 -64 -111q63 -23 64 -125v-418q0 -59 -42 -100t-100 -41h-280zM213 141h139v473h-139v-473zM213 756h139v473h-139v-473z" />
<glyph unicode="C" horiz-adv-x="532" d="M72 201v968q0 88 61.5 149.5t147.5 61.5q88 0 150.5 -61.5t62.5 -149.5v-155h-142v215h-139v-1088h139v215h142v-155q0 -88 -62.5 -150.5t-150.5 -62.5q-86 0 -147.5 62.5t-61.5 150.5z" />
<glyph unicode="D" d="M72 0v1370h280q57 0 99.5 -42t42.5 -99v-1088q0 -59 -42 -100t-100 -41h-280zM213 141h139v1088h-139v-1088z" />
<glyph unicode="E" horiz-adv-x="532" d="M72 141v1088q0 59 41 100t100 41h281v-141h-281v-473h209v-142h-209v-473h281v-141h-281q-59 0 -100 41t-41 100z" />
<glyph unicode="F" horiz-adv-x="495" d="M72 0v1229q0 59 41 100t100 41h281v-141h-281v-473h209v-142h-209v-614h-141z" />
<glyph unicode="G" d="M72 201v968q0 88 61.5 149.5t147.5 61.5q88 0 150.5 -61.5t62.5 -149.5v-155h-142v215h-139v-1088h139v473h-61v142h203v-555q0 -88 -62.5 -150.5t-150.5 -62.5q-86 0 -147.5 62.5t-61.5 150.5z" />
<glyph unicode="H" d="M72 0v1370h141v-614h139v614h142v-1370h-142v614h-139v-614h-141z" />
<glyph unicode="I" horiz-adv-x="282" d="M72 0v1370h141v-1370h-141z" />
<glyph unicode="J" horiz-adv-x="532" d="M37 201v155h141v-215h139v1088h-139v141h281v-1169q0 -88 -62.5 -150.5t-148.5 -62.5q-88 0 -149.5 62.5t-61.5 150.5z" />
<glyph unicode="K" d="M72 0v1370h141v-614h139v512q0 49 31 102h145q-35 -51 -34 -102v-473q0 -74 -64 -111q63 -23 64 -125v-457q0 -43 34 -102h-145q-31 53 -31 102v512h-139v-614h-141z" />
<glyph unicode="L" horiz-adv-x="532" d="M72 0v1370h141v-1229h139v283h142v-424h-422z" />
<glyph unicode="M" horiz-adv-x="706" d="M72 0v1370h129l82 -248q53 -162 67 -207h4q35 113 66 207l86 248h129v-1370h-141v625q0 164 14 411h-2q-29 -98 -88.5 -271t-63.5 -187h-4q-141 430 -149 458h-4q16 -213 16 -411v-625h-141z" />
<glyph unicode="N" d="M72 0v1370h133q16 -92 77.5 -397t84.5 -479h4q-18 258 -19 479v397h142v-1370h-134q-14 78 -76.5 388t-86.5 489h-4q20 -287 20 -480v-397h-141z" />
<glyph unicode="O" d="M72 201v968q0 88 61.5 149.5t147.5 61.5q88 0 150.5 -61.5t62.5 -149.5v-968q0 -88 -62.5 -150.5t-150.5 -62.5q-86 0 -147.5 62.5t-61.5 150.5zM213 141h139v1088h-139v-1088z" />
<glyph unicode="P" horiz-adv-x="532" d="M72 0v1370h280q57 0 99.5 -42t42.5 -99v-473q0 -59 -42 -100.5t-100 -41.5h-139v-614h-141zM213 756h139v473h-139v-473z" />
<glyph unicode="Q" d="M72 201v968q0 88 61.5 149.5t147.5 61.5q88 0 150.5 -61.5t62.5 -149.5v-968q0 -68 -40 -123t-102 -78v-143h131v-142h-129q-59 0 -100 41.5t-41 100.5v143q-61 23 -101 78t-40 123zM213 141h139v1088h-139v-1088z" />
<glyph unicode="R" d="M72 0v1370h280q57 0 99.5 -42t42.5 -99v-434q0 -74 -64 -111q63 -23 64 -125v-457q0 -43 34 -102h-145q-31 53 -31 102v512h-139v-614h-141zM213 756h139v473h-139v-473z" />
<glyph unicode="S" d="M72 201v155h141v-215h139v473h-139q-59 0 -100 41t-41 101v413q0 88 61.5 149.5t147.5 61.5q88 0 150.5 -61.5t62.5 -149.5v-155h-142v215h-139v-473h139q57 0 99.5 -42t42.5 -100v-413q0 -88 -62.5 -150.5t-150.5 -62.5q-86 0 -147.5 62.5t-61.5 150.5z" />
<glyph unicode="T" horiz-adv-x="458" d="M16 1229v141h424v-141h-141v-1229h-139v1229h-144z" />
<glyph unicode="U" d="M72 201v1169h141v-1229h139v1229h142v-1169q0 -88 -62.5 -150.5t-150.5 -62.5q-86 0 -147.5 62.5t-61.5 150.5z" />
<glyph unicode="V" horiz-adv-x="532" d="M35 1370h143l64 -674q16 -231 20 -344h4q6 170 23 344l63 674h144l-164 -1370h-133z" />
<glyph unicode="W" horiz-adv-x="706" d="M59 1370h144q0 -82 4 -340t4 -399q0 -45 -2 -132t-2 -132h4q14 133 46 318t36 214h119q6 -37 37.5 -218t46.5 -314h4q0 45 -2 132t-2 132q0 141 4 399t4 340h143l-47 -1370h-131q-6 31 -30.5 148.5t-36 176t-26 167t-22.5 210.5h-4q-10 -131 -27.5 -247.5t-47 -265 t-37.5 -189.5h-134z" />
<glyph unicode="X" horiz-adv-x="530" d="M35 0l158 684l-158 686h143l72 -352q0 -4 12 -90h4q12 86 13 90l73 352h144l-160 -686l160 -684h-144l-73 352q0 4 -13 90h-4q-12 -86 -12 -90l-72 -352h-143z" />
<glyph unicode="Y" d="M72 813v557h141v-616h139v616h142v-557q0 -63 -39 -123q-37 -53 -103 -78v-612h-139v612q-68 25 -104 78q-37 55 -37 123z" />
<glyph unicode="Z" d="M72 0v141l276 1088h-135v-283h-141v424h422v-141l-277 -1088h135v283h142v-424h-422z" />
<glyph unicode="[" horiz-adv-x="423" d="M106 -274v1724h302v-141h-160v-1442h160v-141h-302z" />
<glyph unicode="\" horiz-adv-x="409" d="M4 1411h92l297 -1491h-92z" />
<glyph unicode="]" horiz-adv-x="423" d="M16 -133h160v1442h-160v141h301v-1724h-301v141z" />
<glyph unicode="^" horiz-adv-x="677" d="M55 784l228 553h102l236 -553h-115l-174 441l-168 -441h-109z" />
<glyph unicode="_" horiz-adv-x="1024" d="M0 -139h1024v-101h-1024v101z" />
<glyph unicode="`" horiz-adv-x="282" d="M-53 1321v131l387 -154v-131z" />
<glyph unicode="a" d="M72 141v525q0 59 41 100t100 41h139v149h-250v142h250q57 0 99.5 -41t42.5 -101v-956h-281q-59 0 -100 41t-41 100zM213 141h139v525h-139v-525z" />
<glyph unicode="b" d="M72 0v1370h141v-272h139q57 0 99.5 -41t42.5 -101v-815q0 -59 -42 -100t-100 -41h-280zM213 141h139v815h-139v-815z" />
<glyph unicode="c" d="M72 201v696q0 88 61.5 150.5t147.5 62.5q88 0 150.5 -62.5t62.5 -150.5v-82h-142v141h-139v-815h139v142h142v-82q0 -88 -62.5 -150.5t-150.5 -62.5q-86 0 -147.5 62.5t-61.5 150.5z" />
<glyph unicode="d" d="M72 141v815q0 59 41 100.5t100 41.5h139v272h142v-1370h-281q-59 0 -100 41t-41 100zM213 141h139v815h-139v-815z" />
<glyph unicode="e" d="M72 201v696q0 88 61.5 150.5t147.5 62.5q88 0 150.5 -62.5t62.5 -150.5v-418h-281v-338h139v142h142v-82q0 -88 -62.5 -150.5t-150.5 -62.5q-86 0 -147.5 62.5t-61.5 150.5zM213 621h139v335h-139v-335z" />
<glyph unicode="f" horiz-adv-x="391" d="M29 813v141h69v275q0 59 41 100t101 41h188v-141h-188v-275h137v-141h-137v-1087h-142v1087h-69z" />
<glyph unicode="g" d="M72 141v756q0 88 61.5 150.5t147.5 62.5q88 0 150.5 -62.5t62.5 -150.5v-1040q0 -59 -41 -100.5t-101 -41.5h-250v142h250v143h-139q-59 0 -100 41t-41 100zM213 141h139v815h-139v-815z" />
<glyph unicode="h" d="M72 0v1370h141v-272h139q57 0 99.5 -41t42.5 -101v-956h-142v956h-139v-956h-141z" />
<glyph unicode="i" horiz-adv-x="282" d="M72 0v1098h141v-1098h-141zM72 1229v141h141v-141h-141z" />
<glyph unicode="j" horiz-adv-x="282" d="M72 -285v1383h141v-1241q0 -61 -43 -101q-41 -37 -98 -41zM72 1229v141h141v-141h-141z" />
<glyph unicode="k" d="M72 0v1370h141v-686h86q53 0 53 49v250q0 57 27 115h141q-27 -57 -26 -115v-250q0 -90 -62 -119q61 -29 62 -116v-383q0 -57 26 -115h-141q-27 57 -27 115v383q0 45 -53 45h-86v-543h-141z" />
<glyph unicode="l" horiz-adv-x="282" d="M72 0v1370h141v-1370h-141z" />
<glyph unicode="m" horiz-adv-x="849" d="M72 0v1098h563q57 0 98 -41t41 -101v-956h-141v956h-139v-956h-142v956h-139v-956h-141z" />
<glyph unicode="n" d="M72 0v1098h280q57 0 99.5 -41t42.5 -101v-956h-142v956h-139v-956h-141z" />
<glyph unicode="o" d="M72 201v696q0 88 61.5 150.5t147.5 62.5q88 0 150.5 -62.5t62.5 -150.5v-696q0 -88 -62.5 -150.5t-150.5 -62.5q-86 0 -147.5 62.5t-61.5 150.5zM213 141h139v815h-139v-815z" />
<glyph unicode="p" d="M72 -274v1372h280q57 0 99.5 -41t42.5 -101v-815q0 -59 -42 -100t-100 -41h-139v-274h-141zM213 141h139v815h-139v-815z" />
<glyph unicode="q" d="M72 141v815q0 59 41 100.5t100 41.5h281v-1372h-142v274h-139q-59 0 -100 41t-41 100zM213 141h139v815h-139v-815z" />
<glyph unicode="r" horiz-adv-x="391" d="M72 0v956q0 59 41 100.5t100 41.5h139v-142h-139v-956h-141z" />
<glyph unicode="s" horiz-adv-x="532" d="M53 201v82h142v-142h139v338h-139q-59 0 -100.5 41t-41.5 101v276q0 88 62.5 150.5t148.5 62.5q88 0 149.5 -62.5t61.5 -150.5v-82h-141v141h-139v-335h139q59 0 100 -41t41 -101v-278q0 -88 -61.5 -150.5t-149.5 -62.5q-86 0 -148.5 62.5t-62.5 150.5z" />
<glyph unicode="t" horiz-adv-x="354" d="M72 0v1370h141v-272h139v-142h-139v-956h-141z" />
<glyph unicode="u" d="M72 0v1098h141v-957h139v957h142v-957q0 -59 -42 -100t-100 -41h-280z" />
<glyph unicode="v" horiz-adv-x="532" d="M35 1098h141l51 -432q29 -233 35 -353h4q4 90 37 353l51 432h142l-166 -1098h-129z" />
<glyph unicode="w" horiz-adv-x="849" d="M72 0v1098h141v-957h139v957h142v-957h139v957h141v-957q0 -59 -41 -100t-98 -41h-563z" />
<glyph unicode="x" horiz-adv-x="532" d="M27 0l166 549l-166 549h145l90 -350h4l92 350h146l-168 -549l168 -549h-146l-92 350h-4l-90 -350h-145z" />
<glyph unicode="y" d="M72 141v957h141v-957h139v957h142v-1372h-142v274h-139q-59 0 -100 41t-41 100z" />
<glyph unicode="z" horiz-adv-x="532" d="M53 0v86l262 870h-120v-141h-142v283h422v-86l-260 -871h119v142h141v-283h-422z" />
<glyph unicode="{" horiz-adv-x="636" d="M106 520v142q82 0 118 37.5t36 117.5v410q0 113 59.5 171t169.5 58h93v-141h-93q-88 0 -88 -88v-410q0 -207 -122 -223v-4q123 -20 122 -225v-410q0 -88 88 -88h93v-141h-93q-111 0 -170 59t-59 170v410q0 82 -36 118.5t-118 36.5z" />
<glyph unicode="|" horiz-adv-x="362" d="M113 -512v2060h137v-2060h-137z" />
<glyph unicode="}" horiz-adv-x="636" d="M55 -133h92q88 0 89 88v410q0 205 122 225v4q-123 16 -122 223v410q0 88 -89 88h-92v141h92q111 0 170.5 -58.5t59.5 -170.5v-410q0 -80 36 -117.5t117 -37.5v-142q-82 0 -117.5 -37t-35.5 -118v-410q0 -111 -59.5 -170t-170.5 -59h-92v141z" />
<glyph unicode="~" horiz-adv-x="645" d="M45 489q57 162 168 162q45 0 131 -55q76 -53 100 -53q51 0 97 112l57 -43q-20 -70 -65.5 -116.5t-98.5 -46.5q-35 0 -119 55t-110 55q-58 1 -103 -110z" />
<glyph unicode="&#xad;" d="M82 614v142h401v-142h-401z" />
<glyph unicode="&#x2000;" horiz-adv-x="774" />
<glyph unicode="&#x2001;" horiz-adv-x="1548" />
<glyph unicode="&#x2002;" horiz-adv-x="774" />
<glyph unicode="&#x2003;" horiz-adv-x="1548" />
<glyph unicode="&#x2004;" horiz-adv-x="516" />
<glyph unicode="&#x2005;" horiz-adv-x="387" />
<glyph unicode="&#x2006;" horiz-adv-x="258" />
<glyph unicode="&#x2007;" horiz-adv-x="258" />
<glyph unicode="&#x2008;" horiz-adv-x="193" />
<glyph unicode="&#x2009;" horiz-adv-x="309" />
<glyph unicode="&#x200a;" horiz-adv-x="86" />
<glyph unicode="&#x2010;" d="M82 614v142h401v-142h-401z" />
<glyph unicode="&#x2011;" d="M82 614v142h401v-142h-401z" />
<glyph unicode="&#x2012;" d="M82 614v142h401v-142h-401z" />
<glyph unicode="&#x2013;" horiz-adv-x="1187" d="M82 614v142h1024v-142h-1024z" />
<glyph unicode="&#x2014;" horiz-adv-x="2211" d="M82 614v142h2048v-142h-2048z" />
<glyph unicode="&#x202f;" horiz-adv-x="309" />
<glyph unicode="&#x205f;" horiz-adv-x="387" />
<glyph unicode="&#x25fc;" horiz-adv-x="1095" d="M0 0v1096h1096v-1096h-1096z" />
</font>
</defs>
</svg>
